# xmcd
#
# Track frame offsets:
#	150
#	11352
#	24365
#	39249
#	54919
#	72843
#	89858
#	108272
#	124147
#	142357
#	159767
#	179146
#	189767
#	206604
#
# Disc length: 2911 seconds
#
# Revision: 1
# Processed by: cddbd v1.5.2PL0 Copyright (c) Steve Scherf et al.
# Submitted via: audiograbber 1.83.01
#
DISCID=ba0b5d0e
DTITLE=Don Rigsby and Midnight Call - The Voice of God
DYEAR=2009
DGENRE=Bluegrass Gospel
TTITLE0=One Prayer Away
TTITLE1=He Done What He Said
TTITLE2=Then Y'Aint
TTITLE3=The Voice of God
TTITLE4=Mary Magdalene
TTITLE5=The Gospel According to Luke
TTITLE6=I Am an Orphan Child
TTITLE7=Forgiveness
TTITLE8=Send Me Wings
TTITLE9=This World Is Not My Home
TTITLE10=The Lord Will Provide
TTITLE11=Charged With Being a Christian
TTITLE12=He Put a Breeze In Me
TTITLE13=Leaning On The Son
EXTD=
EXTT0=
EXTT1=
EXTT2=
EXTT3=
EXTT4=
EXTT5=
EXTT6=
EXTT7=
EXTT8=
EXTT9=
EXTT10=
EXTT11=
EXTT12=
EXTT13=
PLAYORDER=
